<svg height="496pt" viewBox="0 0 496 496" width="496pt" xmlns="http://www.w3.org/2000/svg"><path d="m8 40h240v448h-240zm0 0" fill="#0b7"/><path d="m248 40h240v448h-240zm0 0" fill="#c2fb3b"/><path d="m96 8h64v64h-64zm0 0" fill="#5f7c1d"/><path d="m336 8h64v64h-64zm0 0" fill="#5f7c1d"/><path d="m488 32h-80v-24c0-4.417969-3.582031-8-8-8h-64c-4.417969 0-8 3.582031-8 8v24h-160v-24c0-4.417969-3.582031-8-8-8h-64c-4.417969 0-8 3.582031-8 8v24h-80c-4.417969 0-8 3.582031-8 8v448c0 4.417969 3.582031 8 8 8h480c4.417969 0 8-3.582031 8-8v-448c0-4.417969-3.582031-8-8-8zm-144-16h48v48h-48zm-240 0h48v48h-48zm-88 32h72v24c0 4.417969 3.582031 8 8 8h64c4.417969 0 8-3.582031 8-8v-24h72v432h-224zm464 432h-224v-432h72v24c0 4.417969 3.582031 8 8 8h64c4.417969 0 8-3.582031 8-8v-24h72zm0 0"/><path d="m138.777344 152.496094c-3.140625-1.175782-6.683594-.253906-8.847656 2.304687l-48 56c-2.675782 3.367188-2.203126 8.25 1.0625 11.046875 3.265624 2.796875 8.160156 2.511719 11.078124-.648437l33.929688-39.597657v154.398438c0 4.417969 3.582031 8 8 8s8-3.582031 8-8v-176c0-3.347656-2.085938-6.34375-5.222656-7.503906zm0 0"/><path d="m371.785156 152c-32.410156 0-59.785156 29.320312-59.785156 64 0 4.417969 3.582031 8 8 8s8-3.582031 8-8c0-25.558594 20.464844-48 43.785156-48 16.839844-.933594 32.632813 8.207031 40.214844 23.273438 6.992188 15.238281 4.5625 33.144531-6.238281 45.964843-18.527344 22.121094-38.519531 42.96875-59.851563 62.402344-10.460937 9.960937-21.277344 20.261719-31.605468 30.792969-2.230469 2.300781-2.875 5.707031-1.632813 8.664062 1.242187 2.953125 4.125 4.882813 7.328125 4.902344h104c4.417969 0 8-3.582031 8-8s-3.582031-8-8-8h-84.59375c5.839844-5.679688 11.738281-11.296875 17.523438-16.800781 21.859374-19.921875 42.34375-41.304688 61.308593-64 14.679688-17.609375 17.859375-42.113281 8.160157-62.886719-10.277344-20.558594-31.636719-33.199219-54.605469-32.3125zm0 0"/></svg>